<svg xmlns="http://www.w3.org/2000/svg" viewBox="0 0 33 32" fill="none">
  <path d="M16.496 10.664A5.347 5.347 0 0 0 11.16 16a5.347 5.347 0 0 0 5.336 5.335A5.347 5.347 0 0 0 21.83 16a5.347 5.347 0 0 0-5.335-5.336ZM32.498 16c0-2.21.02-4.399-.104-6.604-.124-2.562-.708-4.836-2.581-6.709C27.934.81 25.666.23 23.104.106 20.894-.02 18.705 0 16.5 0c-2.21 0-4.4-.02-6.605.105C7.334.23 5.06.814 3.187 2.687 1.31 4.564.729 6.834.605 9.396.481 11.606.501 13.794.501 16c0 2.205-.02 4.399.104 6.604.124 2.562.709 4.835 2.582 6.709 1.877 1.877 4.147 2.457 6.708 2.581 2.21.125 4.4.105 6.605.105 2.21 0 4.399.02 6.604-.105 2.562-.124 4.835-.708 6.709-2.581 1.877-1.877 2.457-4.147 2.581-6.709.128-2.205.104-4.395.104-6.604Zm-16.002 8.21A8.198 8.198 0 0 1 8.286 16a8.198 8.198 0 0 1 8.21-8.21 8.198 8.198 0 0 1 8.21 8.21 8.198 8.198 0 0 1-8.21 8.21ZM25.04 9.371a1.915 1.915 0 0 1-1.917-1.918c0-1.06.857-1.917 1.917-1.917a1.915 1.915 0 0 1 1.772 2.651 1.916 1.916 0 0 1-1.772 1.184Z" fill="#fff"/>
</svg>
