<svg aria-hidden="true" style="position: absolute; width: 0; height: 0; overflow: hidden;" version="1.1" xmlns="http://www.w3.org/2000/svg" xmlns:xlink="http://www.w3.org/1999/xlink">
<defs>
<symbol id="discord" viewBox="0 0 33 32">
<path d="M7.036 0.113c-2.030 0.217-3.37 0.863-4.666 2.247-0.495 0.529-0.682 0.801-1.014 1.48-0.492 1.001-0.678 1.74-0.793 3.146-0.117 1.437-0.058 18.174 0.067 18.875 0.179 1.004 0.33 1.481 0.726 2.289 0.332 0.678 0.519 0.95 1.014 1.48 1.322 1.41 2.617 2.021 4.778 2.252 1.482 0.157 17.223 0.157 18.705 0 1.995-0.213 3.22-0.739 4.44-1.905 1.363-1.301 1.942-2.646 2.145-4.98 0.116-1.338 0.056-18.177-0.067-18.87-0.179-1.003-0.33-1.48-0.726-2.288-0.332-0.678-0.519-0.95-1.015-1.48-1.322-1.41-2.634-2.029-4.777-2.252-1.401-0.146-17.455-0.141-18.817 0.006zM13.452 7.591l0.318 0.642 0.299-0.048c1.164-0.186 3.63-0.186 4.881 0l0.281 0.043 0.209-0.471c0.115-0.259 0.266-0.545 0.337-0.636l0.128-0.165 0.823 0.175c1.038 0.221 1.727 0.42 2.768 0.799 1.279 0.466 1.298 0.479 1.767 1.188 2.265 3.424 3.43 7.554 3.248 11.511-0.028 0.596-0.067 1.152-0.087 1.236-0.067 0.284-2.11 1.534-3.585 2.194-0.89 0.398-2.29 0.906-2.491 0.904-0.154-0.001-1.44-1.96-1.347-2.053 0.016-0.017 0.315-0.152 0.664-0.3 0.348-0.15 0.783-0.358 0.965-0.464l0.332-0.194-0.394-0.338-0.733 0.287c-0.978 0.384-1.898 0.646-2.94 0.837-1.231 0.226-3.558 0.226-4.789 0-1.197-0.22-2.275-0.546-3.59-1.086-0.065-0.027-0.208 0.031-0.333 0.134l-0.22 0.18 0.669 0.325c0.368 0.179 0.812 0.382 0.987 0.452s0.318 0.173 0.318 0.229c0 0.11-0.64 1.186-1.025 1.726l-0.24 0.334-0.62-0.212c-1.080-0.365-1.99-0.76-2.862-1.219l0.106 0.051c-1.213-0.616-2.667-1.568-2.718-1.78-0.103-0.424-0.133-2.35-0.052-3.367 0.27-3.419 1.302-6.441 3.21-9.403l0.42-0.65 0.75-0.295c1.249-0.49 3.419-1.115 4.172-1.2 0.031-0.004 0.2 0.282 0.374 0.634zM11.739 14.714c-1.157 0.54-1.662 1.992-1.114 3.206 0.388 0.861 1.11 1.327 1.976 1.274 0.811-0.050 1.38-0.433 1.787-1.205 0.18-0.344 0.204-0.468 0.203-1.098 0-0.6-0.029-0.767-0.183-1.080-0.222-0.449-0.614-0.855-1.015-1.050-0.433-0.21-1.255-0.233-1.654-0.047zM19.803 14.67c-0.384 0.122-1.012 0.739-1.215 1.192-0.249 0.555-0.252 1.504-0.007 2.039 0.664 1.45 2.419 1.757 3.436 0.602 0.405-0.46 0.58-0.971 0.576-1.686-0.004-0.663-0.168-1.089-0.604-1.572-0.533-0.591-1.412-0.822-2.186-0.575z"></path>
</symbol>
<symbol id="facebook" viewBox="0 0 33 32">
<path d="M0.5 16.090c0 7.953 5.777 14.568 13.333 15.91v-11.556h-4v-4.444h4v-3.556c0-4 2.578-6.221 6.223-6.221 1.155 0 2.4 0.177 3.555 0.354v4.090h-2.044c-1.956 0-2.4 0.977-2.4 2.222v3.111h4.266l-0.71 4.444h-3.556v11.556c7.556-1.341 13.333-7.955 13.333-15.91 0-8.85-7.2-16.090-16-16.090s-16 7.24-16 16.090z"></path>
</symbol>
<symbol id="instagram" viewBox="0 0 33 32">
<path d="M16.496 10.664c-2.944 0.006-5.33 2.392-5.336 5.335v0.001c0.007 2.944 2.392 5.329 5.335 5.335h0.001c2.943-0.007 5.327-2.392 5.334-5.334v-0.001c-0.006-2.944-2.391-5.329-5.334-5.336h-0.001zM32.498 16c0-2.21 0.020-4.399-0.104-6.604-0.124-2.562-0.708-4.836-2.581-6.709-1.879-1.877-4.147-2.457-6.709-2.581-2.21-0.126-4.399-0.106-6.604-0.106-2.21 0-4.4-0.020-6.605 0.105-2.561 0.125-4.835 0.709-6.708 2.582-1.877 1.877-2.458 4.147-2.582 6.709-0.124 2.21-0.104 4.398-0.104 6.604 0 2.205-0.020 4.399 0.104 6.604 0.124 2.562 0.709 4.835 2.582 6.709 1.877 1.877 4.147 2.457 6.708 2.581 2.21 0.125 4.4 0.105 6.605 0.105 2.21 0 4.399 0.020 6.604-0.105 2.562-0.124 4.835-0.708 6.709-2.581 1.877-1.877 2.457-4.147 2.581-6.709 0.128-2.205 0.104-4.395 0.104-6.604zM16.496 24.21c-0.004 0-0.008 0-0.012 0-4.528 0-8.198-3.67-8.198-8.198 0-0.004 0-0.008 0-0.013v0.001c0-0.004 0-0.008 0-0.012 0-4.528 3.67-8.198 8.198-8.198 0.004 0 0.008 0 0.013 0h-0.001c0.004 0 0.008 0 0.012 0 4.528 0 8.198 3.67 8.198 8.198 0 0.004 0 0.008 0 0.013v-0.001c0 0.004 0 0.008 0 0.012 0 4.528-3.67 8.198-8.198 8.198-0.004 0-0.008 0-0.013 0h0.001zM25.040 9.371c-0.001 0-0.001 0-0.002 0-1.058 0-1.915-0.857-1.915-1.915 0-0.001 0-0.002 0-0.003v0c0-1.060 0.857-1.917 1.917-1.917 0.001 0 0.003 0 0.004 0 1.058 0 1.915 0.857 1.915 1.915 0 0.266-0.054 0.519-0.152 0.749l0.005-0.013c-0.295 0.701-0.977 1.184-1.771 1.184-0 0-0.001 0-0.001 0h0z"></path>
</symbol>
<symbol id="telegram" viewBox="0 0 33 32">
<path d="M14.98 0.039c-5.008 0.52-9.396 3.245-12.062 7.49-3.78 6.018-3.067 14.009 1.716 19.215 2.659 2.893 5.951 4.614 9.907 5.178 0.743 0.106 3.202 0.104 3.974-0.003 3.895-0.54 7.185-2.257 9.84-5.136 2.181-2.367 3.581-5.398 4.066-8.807 0.105-0.736 0.105-3.208 0-3.945-0.441-3.103-1.642-5.908-3.483-8.14-2.615-3.171-6.149-5.168-10.204-5.769-0.768-0.114-2.99-0.164-3.755-0.084zM23.65 9.838c0.366 0.35 0.37 0.59 0.054 2.94-0.28 2.092-1.255 7.988-1.598 9.676-0.127 0.625-0.368 1.15-0.638 1.387-0.213 0.187-0.236 0.192-0.695 0.165-0.324-0.020-0.56-0.073-0.747-0.169-0.424-0.218-5.268-3.503-5.54-3.756-0.293-0.274-0.432-0.572-0.376-0.806 0.079-0.326 0.465-0.754 1.854-2.050 1.704-1.592 3.518-3.364 3.65-3.567 0.132-0.2 0.028-0.41-0.202-0.41-0.21 0-0.074-0.085-3.901 2.466-1.807 1.204-3.441 2.266-3.63 2.36-0.565 0.28-0.963 0.334-1.619 0.22-0.551-0.095-2.26-0.584-2.967-0.85-0.747-0.28-0.94-0.657-0.531-1.045 0.265-0.253 0.305-0.272 3.119-1.494 7.545-3.278 11.349-4.847 12.6-5.197 0.492-0.139 0.939-0.089 1.167 0.13z"></path>
</symbol>
<symbol id="logo" viewBox="0 0 56 32">
<path d="M5.451 31.2c-0.014 0-0.031 0-0.048 0-1.001 0-1.939-0.271-2.744-0.744l0.026 0.014c-0.802-0.506-1.458-1.172-1.937-1.958l-0.015-0.026c-0.461-0.757-0.733-1.672-0.733-2.651 0-0.023 0-0.046 0-0.069l-0 0.003v-12.643c0-0.998 0.245-1.904 0.733-2.715 0.487-0.805 1.145-1.46 1.927-1.93l0.025-0.014c0.775-0.483 1.717-0.77 2.725-0.77 0.015 0 0.029 0 0.044 0h13.707v-7.698h4.84v31.2h-18.549zM5.654 26.378h12.733c0.009 0 0.019 0.001 0.029 0.001 0.194 0 0.37-0.077 0.499-0.202l-0 0c0.151-0.142 0.245-0.343 0.245-0.566 0-0.001 0-0.002 0-0.002v0-12.317c0-0.005 0-0.012 0-0.018 0-0.206-0.095-0.389-0.244-0.509l-0.001-0.001c-0.121-0.149-0.305-0.243-0.51-0.243-0.006 0-0.013 0-0.019 0l0.001-0h-12.733c-0.001 0-0.002 0-0.003 0-0.223 0-0.424 0.093-0.567 0.243l-0 0c-0.126 0.128-0.204 0.304-0.204 0.498 0 0.011 0 0.021 0.001 0.031l-0-0.002v12.317c0 0.216 0.067 0.405 0.203 0.568 0.149 0.125 0.343 0.202 0.555 0.202 0.005 0 0.010-0 0.016-0h-0.001z"></path>
<path d="M55.2 28.090l-9.778-8.89 9.778-8.89-3.422-3.11-9.778 8.89-9.778-8.89-3.422 3.11 9.778 8.89-9.778 8.89 3.422 3.11 9.778-8.89 9.778 8.89 3.422-3.11z"></path>
</symbol>
<symbol id="eye-close" viewBox="0 0 33 32">
<path d="M29.167 21.875c-0.142 0.082-0.313 0.131-0.495 0.131-0.371 0-0.694-0.201-0.867-0.501l-0.003-0.005-2.375-4.151c-1.294 0.886-2.794 1.599-4.402 2.056l-0.109 0.026 0.733 4.403c0.009 0.050 0.014 0.107 0.014 0.165 0 0.551-0.446 0.998-0.996 1h-0c-0.494-0.001-0.904-0.359-0.985-0.83l-0.001-0.006-0.72-4.323c-1.523 0.212-3.065 0.212-4.587 0l-0.72 4.323c-0.082 0.478-0.493 0.837-0.988 0.837-0.553 0-1.002-0.448-1.002-1.002 0-0.058 0.005-0.115 0.014-0.171l-0.001 0.006 0.737-4.403c-1.715-0.485-3.214-1.198-4.559-2.119l0.053 0.034-2.368 4.153c-0.177 0.304-0.501 0.505-0.871 0.505-0.555 0-1.005-0.45-1.005-1.005 0-0.184 0.049-0.356 0.136-0.505l-0.003 0.005 2.5-4.375c-0.88-0.763-1.67-1.581-2.384-2.464l-0.028-0.036c-0.157-0.176-0.253-0.409-0.253-0.665 0-0.552 0.448-1 1-1 0.332 0 0.627 0.162 0.809 0.412l0.002 0.003c2.076 2.568 5.705 5.625 11.223 5.625s9.147-3.061 11.223-5.625c0.183-0.26 0.482-0.428 0.82-0.428 0.552 0 1 0.448 1 1 0 0.262-0.101 0.501-0.266 0.679l0.001-0.001c-0.742 0.919-1.533 1.737-2.389 2.48l-0.024 0.020 2.501 4.375c0.086 0.145 0.137 0.32 0.137 0.506 0 0.37-0.2 0.692-0.498 0.866l-0.005 0.003z"></path>
</symbol>
<symbol id="eye-open" viewBox="0 0 32 32">
<path d="M30.913 15.595c-0.043-0.099-1.103-2.447-3.456-4.8-3.136-3.139-7.097-4.795-11.457-4.795s-8.32 1.657-11.457 4.793c-2.353 2.355-3.417 4.707-3.456 4.801-0.055 0.12-0.086 0.259-0.086 0.407s0.032 0.287 0.089 0.413l-0.003-0.006c0.043 0.099 1.103 2.445 3.456 4.8 3.136 3.133 7.097 4.792 11.457 4.792s8.32-1.657 11.457-4.792c2.353-2.355 3.413-4.701 3.456-4.8 0.055-0.12 0.086-0.259 0.086-0.407s-0.032-0.287-0.089-0.413l0.003 0.006zM16 24c-3.848 0-7.209-1.4-9.991-4.156-1.115-1.109-2.073-2.373-2.841-3.758l-0.043-0.086c0.81-1.471 1.769-2.735 2.883-3.843l0.001-0.001c2.781-2.756 6.143-4.156 9.991-4.156s7.209 1.4 9.991 4.156c1.118 1.109 2.078 2.373 2.847 3.759l0.043 0.085c-0.901 1.683-4.827 8-12.881 8zM16 10c-3.314 0-6 2.686-6 6s2.686 6 6 6v0c3.314 0 6-2.686 6-6s-2.686-6-6-6v0zM16 20c-0.022 0-0.047 0.001-0.073 0.001-2.209 0-4-1.791-4-4s1.791-4 4-4c0.026 0 0.051 0 0.077 0.001l-0.004-0c2.178 0.041 3.927 1.816 3.927 3.999s-1.749 3.958-3.923 3.999l-0.004 0z"></path>
</symbol>
</defs>
</svg>
